<svg xmlns="http://www.w3.org/2000/svg" fill="currentColor" viewBox="0 0 24 24">
  <path d="M7 18c-1.104 0-2 .897-2 2s.896 2 2 2 2-.897 2-2-.896-2-2-2zm0 2zm10-2c-1.104 0-2 .897-2 2s.896 2 2 2 2-.897 2-2-.896-2-2-2zm0 2zm-12.242-6.323l1.667-8h14.575l-1.596 8h-14.646zm15.609-10.677h-17.367l-.757-2h-2.243v2h1.334l3.6 10.8-1.35 6.5c-.104.511.031 1.032.368 1.426.337.395.826.627 1.347.627h13.001v-2h-12.209l.298-1.442h11.612c.9 0 1.678-.602 1.888-1.483l1.845-9.24c.13-.649-.042-1.327-.473-1.837s-1.062-.757-1.678-.757z"/>
</svg>
